<svg xmlns="http://www.w3.org/2000/svg" xml:space="preserve" id="Layer_1" x="0" y="0" style="enable-background:new 0 0 114.53 122.88" version="1.1" viewBox="0 0 114.53 122.88"><style>.st0{fill:#fb8f2d}.st1{fill:#ffe278}.st2{fill:#ff9f34}.st3{fill:#d83636}.st4{fill:#f2433b}.st6{fill:#fff}</style><path d="m53.62 68.6 31.59-17.3.03-.01 8.25-4.51c.78-.43 1.76-.14 2.19.65a50.773 50.773 0 0 1 5.96 18.97c.71 6.54.15 13.22-1.71 19.67-.02.1-.05.19-.08.29-3.98 13.44-13 24.01-24.41 30.25-11.4 6.24-25.17 8.15-38.62 4.25-.1-.02-.2-.05-.29-.09-13.44-3.98-24.01-13-30.25-24.41C.01 84.91-1.89 71.09 2.06 57.58v-.01c3.95-13.51 13.01-24.13 24.45-30.39 11.44-6.26 25.27-8.16 38.77-4.21.86.25 1.35 1.14 1.1 2L53.62 68.6z" class="st0"/><path d="M80.48 69.18a4.63 4.63 0 0 0-3.26-1.35 4.612 4.612 0 0 0-3.26 7.87 4.57 4.57 0 0 0 3.26 1.35c1.27 0 2.43-.52 3.26-1.35a4.57 4.57 0 0 0 1.35-3.26 4.672 4.672 0 0 0-1.35-3.26z"/><path d="M87.83 53.68 51.82 73.4c-.2.11-.43.18-.65.21h-.37a1.729 1.729 0 0 1-1.48-2.21l11.54-39.42a40.94 40.94 0 0 0-29.61 3.85c-9.23 5.05-16.53 13.62-19.71 24.51-3.19 10.9-1.65 22.05 3.39 31.29 5.05 9.23 13.62 16.53 24.51 19.71 10.9 3.19 22.06 1.65 31.29-3.39 9.23-5.05 16.53-13.62 19.71-24.51a41.302 41.302 0 0 0 1.42-15.99c-.53-4.76-1.88-9.42-4.03-13.77z" class="st1"/><path d="M88.15 53.37c2.21 4.43 3.59 9.19 4.11 14.03.58 5.37.12 10.85-1.43 16.14-3.22 11.01-10.6 19.68-19.93 24.78-9.32 5.1-20.59 6.65-31.59 3.43-11.01-3.22-19.68-10.6-24.78-19.93-5.1-9.32-6.65-20.59-3.43-31.59 3.22-11.01 10.6-19.68 19.93-24.78 8.89-4.86 19.54-6.5 30.04-3.85l1.74-5.96C50.66 22.52 38.33 24.39 28.06 30c-10.72 5.88-19.2 15.83-22.9 28.47-3.7 12.66-1.92 25.61 3.95 36.33 5.87 10.71 15.82 19.19 28.46 22.89 12.66 3.7 25.6 1.92 36.32-3.94 10.71-5.86 19.19-15.82 22.89-28.46a47.688 47.688 0 0 0 1.64-18.56 47.589 47.589 0 0 0-4.83-16.34l-5.44 2.98z" class="st2"/><path d="M83.93.06a50.807 50.807 0 0 1 17.62 9.18c5.26 4.23 9.58 9.44 12.78 15.27.43.78.14 1.76-.65 2.19L70.4 50.39c-.78.43-1.76.14-2.19-.65a1.59 1.59 0 0 1-.13-1.22L81.94 1.17c.23-.86 1.13-1.35 1.99-1.11z" class="st0"/><path d="M104.98 28.42A50.944 50.944 0 0 0 94.59 17.3a51.305 51.305 0 0 0-12.65-7.34L71.11 46.95l33.87-18.53z" class="st1"/><path d="M83.26 8.11c4.73 1.87 9.05 4.39 12.88 7.42 4.1 3.24 7.63 7.08 10.52 11.33l4.04-2.21a47.94 47.94 0 0 0-11.17-12.9c-4.35-3.5-9.38-6.28-14.96-8.12l-1.31 4.48z" class="st2"/><path d="M77.21 64.92c2.08 0 3.96.84 5.32 2.2a7.496 7.496 0 0 1 2.2 5.32c0 2.08-.84 3.96-2.2 5.32a7.496 7.496 0 0 1-5.32 2.2c-2.08 0-3.96-.84-5.32-2.2a7.496 7.496 0 0 1-2.2-5.32c0-2.08.84-3.96 2.2-5.32a7.556 7.556 0 0 1 5.32-2.2zM26.79 70.38c3.35 0 6.07 2.72 6.07 6.07s-2.72 6.07-6.07 6.07-6.07-2.72-6.07-6.07 2.72-6.07 6.07-6.07z" class="st3"/><path d="M32.98 50.34 40.7 39.2l8.05 11.47-15.77-.33z" class="st4"/><path d="M39.56 101.18c-.79.14-1.54-.38-1.68-1.17-.14-.79.38-1.54 1.17-1.68 1.51-.27 2.81-.37 4.03-.09 1.32.3 2.46 1.01 3.51 2.33.04.05.08.09.12.13.34.32.9.35 1.49.22.8-.17 1.6-.61 2.2-1.08.17-.13.32-.27.43-.39 2.13-2.24 4.84-.96 7.1.12.75.36 1 1.52 1.2 1.09.01-.03.03-.06.04-.09a1.452 1.452 0 0 1 2.81.69c-.08.52-.2.76-.38.93-1.05 1.86-2.83 1.01-4.91.02-1.4-.67-3.08-1.46-3.76-.74-.21.23-.46.45-.73.66-.9.71-2.14 1.38-3.39 1.65-1.46.32-2.95.14-4.11-.96-.14-.13-.27-.27-.39-.43-.6-.76-1.21-1.15-1.89-1.31-.76-.19-1.71-.11-2.86.1zm2.16-23.62c-.08-.8.49-1.51 1.29-1.6.8-.08 1.51.49 1.6 1.29.3 2.75.01 5.18-.86 7.27-.89 2.14-2.37 3.9-4.45 5.27a1.45 1.45 0 1 1-1.6-2.42c1.58-1.05 2.71-2.37 3.37-3.97.67-1.64.89-3.59.65-5.84zM30.07 62.89a1.46 1.46 0 0 1-1.69-1.16 1.46 1.46 0 0 1 1.17-1.69c.84-.16 1.68-.43 2.46-.69 2.6-.86 4.68-1.54 7.04 1 .64.69 1.67.72 2.82.74.87.02 1.8.04 2.79.26a1.454 1.454 0 0 1-.62 2.84c-.76-.17-1.52-.18-2.23-.2-1.81-.04-3.42-.08-4.89-1.66-1.09-1.18-2.38-.75-4-.22-.84.28-1.76.58-2.85.78z" style="fill:#75aa00"/><path d="m56.17 92.6 8.09-9.7 7.08 9.8-15.17-.1z" class="st4"/><path d="M88.36 18.5c3.35 0 6.07 2.72 6.07 6.07s-2.72 6.07-6.07 6.07-6.07-2.72-6.07-6.07 2.72-6.07 6.07-6.07z" class="st3"/><path d="M77.21 70.3c.59 0 1.12.24 1.51.62.39.39.62.92.62 1.51s-.24 1.12-.62 1.51c-.39.39-.92.62-1.51.62s-1.12-.24-1.51-.62c-.39-.39-.62-.92-.62-1.51s.24-1.12.62-1.51c.38-.38.92-.62 1.51-.62zM26.79 74.31c.59 0 1.12.24 1.51.62.39.39.62.92.62 1.51s-.24 1.12-.62 1.51c-.39.39-.92.62-1.51.62s-1.12-.24-1.51-.62c-.39-.39-.62-.92-.62-1.51s.24-1.12.62-1.51c.38-.38.92-.62 1.51-.62z" class="st6"/></svg>